<svg width="12" height="12" viewBox="0 0 12 12" fill="none" xmlns="http://www.w3.org/2000/svg">
<path d="M11.6518 9.39776L11.6282 0.313795L2.54428 0.290225C2.44964 0.277411 2.35335 0.285081 2.26193 0.312716C2.17051 0.34035 2.0861 0.387305 2.0144 0.4504C1.94271 0.513495 1.88541 0.591258 1.84638 0.678423C1.80735 0.765589 1.7875 0.860123 1.78819 0.955625C1.78887 1.05113 1.81006 1.14537 1.85033 1.23197C1.8906 1.31857 1.94901 1.3955 2.0216 1.45757C2.09419 1.51963 2.17926 1.56538 2.27107 1.5917C2.36287 1.61803 2.45926 1.62432 2.55371 1.61016L9.36079 1.63844L0.342823 10.6564C0.217799 10.7814 0.147562 10.951 0.147561 11.1278C0.147562 11.3046 0.217799 11.4742 0.342823 11.5992C0.467847 11.7242 0.637418 11.7945 0.814229 11.7945C0.99104 11.7945 1.16061 11.7242 1.28563 11.5992L10.3036 2.58125L10.3319 9.38833C10.3325 9.56524 10.4034 9.73466 10.5289 9.85931C10.6545 9.98396 10.8244 10.0536 11.0013 10.053C11.1782 10.0524 11.3476 9.98151 11.4723 9.85598C11.5969 9.73044 11.6666 9.56053 11.666 9.38362L11.6518 9.39776Z" fill="#EFEFEF"/>
</svg>
