<svg width="12" height="7" viewBox="0 0 12 7" fill="none" xmlns="http://www.w3.org/2000/svg">
<path d="M6.173 6.41131L11.483 0.838306C11.5716 0.745318 11.6211 0.621776 11.6211 0.493306C11.6211 0.364835 11.5716 0.241294 11.483 0.148306L11.477 0.142306C11.434 0.0970707 11.3823 0.0610513 11.325 0.0364375C11.2676 0.0118236 11.2059 -0.00086931 11.1435 -0.000869316C11.0811 -0.000869321 11.0194 0.0118236 10.962 0.0364375C10.9047 0.0610513 10.853 0.0970706 10.81 0.142306L5.81 5.39031L0.811999 0.142305C0.769025 0.0970697 0.717299 0.0610504 0.659966 0.0364366C0.602633 0.0118227 0.540892 -0.000870243 0.478499 -0.000870248C0.416106 -0.000870254 0.354365 0.0118227 0.297032 0.0364365C0.239699 0.0610504 0.187973 0.0970697 0.144999 0.142305L0.138999 0.148305C0.0503536 0.241293 0.000902718 0.364834 0.000902707 0.493305C0.000902696 0.621775 0.0503536 0.745317 0.138999 0.838305L5.449 6.41131C5.4957 6.46032 5.55186 6.49934 5.61408 6.526C5.67631 6.55266 5.7433 6.56641 5.811 6.56641C5.8787 6.56641 5.94569 6.55266 6.00791 6.526C6.07014 6.49934 6.1263 6.46032 6.173 6.41131Z" fill="black"/>
</svg>
