<svg viewBox="0 0 16 16" xmlns="http://www.w3.org/2000/svg" xmlns:xlink="http://www.w3.org/1999/xlink" width="16.000000" height="16.000000" fill="none" customFrame="#000000">
	<path id="Vector" d="M0 2.16223C0 0.968064 0.97465 0 2.17694 0L13.8231 0C15.0253 0 16 0.968065 16 2.16223L16 13.8378C16 15.0319 15.0253 16 13.8231 16L2.17694 16C0.974651 16 0 15.0319 0 13.8378L0 2.16223Z" fill="rgb(51,51,51)" fill-rule="evenodd" />
	<path id="Vector" d="M4.15014 11.1351L2.41639 11.1351C2.16392 11.1351 1.95925 10.9318 1.95925 10.681L1.95925 2.39995C1.95925 2.14918 2.16392 1.9459 2.41639 1.9459L4.15014 1.9459C4.40261 1.9459 4.60728 2.14918 4.60728 2.39995L4.60728 6.75655C4.60728 7.13888 5.05394 7.35004 5.35269 7.10895L8.40947 4.64215C8.49096 4.57639 8.59275 4.5405 8.69774 4.5405L11.2733 4.5405C11.72 4.5405 11.9016 5.1114 11.5359 5.36624L8.00993 7.82361C7.79047 7.97656 7.75002 8.28339 7.92243 8.4873L12.0899 13.4161C12.3397 13.7115 12.1282 14.1621 11.7398 14.1621L9.42074 14.1621C9.28527 14.1621 9.15678 14.1024 9.06992 13.9992L5.41524 9.65431C5.14129 9.32863 4.60728 9.52104 4.60728 9.94543L4.60728 10.681C4.60728 10.9318 4.40261 11.1351 4.15014 11.1351Z" fill="rgb(51,51,51)" fill-rule="evenodd" />
	<path id="Vector" d="M4.15014 11.1351L2.41639 11.1351C2.16392 11.1351 1.95925 10.9318 1.95925 10.681L1.95925 2.39995C1.95925 2.14918 2.16392 1.9459 2.41639 1.9459L4.15014 1.9459C4.40261 1.9459 4.60728 2.14918 4.60728 2.39995L4.60728 6.75655C4.60728 7.13888 5.05394 7.35004 5.35269 7.10895L8.40947 4.64215C8.49096 4.57639 8.59275 4.5405 8.69774 4.5405L11.2733 4.5405C11.72 4.5405 11.9016 5.1114 11.5359 5.36624L8.00993 7.82361C7.79047 7.97656 7.75002 8.28339 7.92243 8.4873L12.0899 13.4161C12.3397 13.7115 12.1282 14.1621 11.7398 14.1621L9.42074 14.1621C9.28527 14.1621 9.15678 14.1024 9.06992 13.9992L5.41524 9.65431C5.14129 9.32863 4.60728 9.52104 4.60728 9.94543L4.60728 10.681C4.60728 10.9318 4.40261 11.1351 4.15014 11.1351Z" fill="rgb(215.451,215.451,215.451)" fill-rule="evenodd" />
	<path id="Vector" d="M2.41663 14.0546L4.11459 14.0546C4.36707 14.0546 4.57174 13.8513 4.57174 13.6005L4.57174 11.914C4.57174 11.6633 4.36707 11.46 4.11459 11.46L2.41664 11.46C2.16416 11.46 1.95949 11.6633 1.95949 11.914L1.95949 13.6005C1.95949 13.8513 2.16416 14.0546 2.41663 14.0546Z" fill="rgb(51,51,51)" fill-rule="nonzero" />
	<path id="Vector" d="M2.41663 14.0546L4.11459 14.0546C4.36707 14.0546 4.57174 13.8513 4.57174 13.6005L4.57174 11.914C4.57174 11.6633 4.36707 11.46 4.11459 11.46L2.41664 11.46C2.16416 11.46 1.95949 11.6633 1.95949 11.914L1.95949 13.6005C1.95949 13.8513 2.16416 14.0546 2.41663 14.0546Z" fill="rgb(220.784,83.0033,5.50164)" fill-rule="nonzero" />
	<path id="Vector" d="M11.8857 4.54051L13.7143 4.54051C13.9668 4.54051 14.1714 4.33723 14.1714 4.08646L14.1714 2.27024C14.1714 2.01947 13.9668 1.81619 13.7143 1.81619L11.8857 1.81619C11.6332 1.81619 11.4286 2.01948 11.4286 2.27024L11.4286 4.08646C11.4286 4.33723 11.6332 4.54051 11.8857 4.54051Z" fill="rgb(51,51,51)" fill-rule="nonzero" />
	<path id="Vector" d="M11.8857 4.54051L13.7143 4.54051C13.9668 4.54051 14.1714 4.33723 14.1714 4.08646L14.1714 2.27024C14.1714 2.01947 13.9668 1.81619 13.7143 1.81619L11.8857 1.81619C11.6332 1.81619 11.4286 2.01948 11.4286 2.27024L11.4286 4.08646C11.4286 4.33723 11.6332 4.54051 11.8857 4.54051Z" fill="rgb(220.784,83.0033,5.50164)" fill-rule="nonzero" />
</svg>
