<svg width="45" height="46" viewBox="0 0 45 46" fill="none" xmlns="http://www.w3.org/2000/svg">
<path d="M0 6.21642C0 2.78318 2.7412 0 6.12265 0H38.8773C42.2588 0 45 2.78319 45 6.21642V39.7836C45 43.2168 42.2588 46 38.8773 46H6.12265C2.7412 46 0 43.2168 0 39.7836V6.21642Z" fill="#333333"/>
<path d="M11.6723 32.0134H6.7961C6.08602 32.0134 5.51039 31.4289 5.51039 30.708L5.51039 6.89985C5.51039 6.1789 6.08602 5.59445 6.7961 5.59445H11.6723C12.3823 5.59445 12.958 6.1789 12.958 6.89985L12.958 19.4251C12.958 20.5243 14.2142 21.1314 15.0544 20.4382L23.6516 13.3462C23.8808 13.1571 24.1671 13.0539 24.4624 13.0539L31.7062 13.0539C32.9625 13.0539 33.4731 14.6953 32.4447 15.4279L22.5279 22.4929C21.9107 22.9326 21.7969 23.8147 22.2818 24.401L34.0028 38.5712C34.7053 39.4205 34.1106 40.7161 33.0182 40.7161H26.4958C26.1148 40.7161 25.7534 40.5445 25.5092 40.2477L15.2304 27.7562C14.4599 26.8198 12.958 27.373 12.958 28.5931V30.708C12.958 31.4289 12.3823 32.0134 11.6723 32.0134Z" fill="#D7D7D7"/>
<path d="M6.79678 40.4069H11.5723C12.2824 40.4069 12.858 39.8224 12.858 39.1015V34.2528C12.858 33.5318 12.2824 32.9474 11.5723 32.9474H6.79679C6.08671 32.9474 5.51107 33.5318 5.51107 34.2528V39.1014C5.51107 39.8224 6.0867 40.4069 6.79678 40.4069Z" fill="#DD5306"/>
<path d="M33.4286 13.054H38.5714C39.2815 13.054 39.8571 12.4695 39.8571 11.7486V6.52695C39.8571 5.80599 39.2815 5.22154 38.5714 5.22154L33.4286 5.22154C32.7185 5.22154 32.1429 5.80599 32.1429 6.52695V11.7486C32.1429 12.4695 32.7185 13.054 33.4286 13.054Z" fill="#DD5306"/>
</svg>
