<svg width="40" height="40" viewBox="0 0 40 40" fill="none" xmlns="http://www.w3.org/2000/svg">
<path d="M20.0325 0.000244141C8.97465 0.000244141 0.000198364 8.9747 0.000198364 20.0325C0.000198364 31.0903 8.97465 40.0648 20.0325 40.0648C31.0903 40.0648 40.0647 31.0903 40.0647 20.0325C40.0647 8.9747 31.0903 0.000244141 20.0325 0.000244141ZM29.3274 13.6222C29.0269 16.7873 27.7248 24.4797 27.0638 28.0254C26.7833 29.5278 26.2224 30.0286 25.7016 30.0887C24.5397 30.1889 23.6583 29.3275 22.5365 28.5863C20.7736 27.4244 19.772 26.7032 18.0693 25.5814C16.0861 24.2793 17.3682 23.5582 18.51 22.3963C18.8105 22.0958 23.9387 17.4283 24.0389 17.0076C24.0528 16.9439 24.051 16.8778 24.0335 16.8149C24.0161 16.7521 23.9835 16.6945 23.9387 16.6471C23.8186 16.5469 23.6583 16.587 23.5181 16.607C23.3378 16.6471 20.5333 18.51 15.0645 22.196C14.2632 22.7369 13.542 23.0173 12.901 22.9973C12.1798 22.9772 10.8176 22.5966 9.79597 22.2561C8.53394 21.8554 7.55236 21.6351 7.63249 20.934C7.67255 20.5734 8.17336 20.2128 9.11488 19.8322C14.9643 17.2881 18.8506 15.6054 20.7937 14.8041C26.3626 12.4803 27.5045 12.0797 28.2657 12.0797C28.426 12.0797 28.8066 12.1198 29.047 12.3201C29.2473 12.4803 29.3074 12.7007 29.3274 12.861C29.3074 12.9811 29.3475 13.3417 29.3274 13.6222Z" fill="#DD5306"/>
</svg>
